<svg width="1291" height="291" viewBox="0 0 1291 291" fill="none" xmlns="http://www.w3.org/2000/svg">
<path d="M484.831 290.932C417.635 290.931 350.889 290.932 284.143 290.931C278.018 290.931 278.016 290.925 278.016 284.342C278.016 263.408 278.009 242.473 278.021 221.539C278.025 215.576 278.277 215.332 283.888 215.32C287.48 215.312 291.077 215.454 294.662 215.281C298.19 215.111 299.418 216.791 299.391 220.473C299.289 234.482 299.537 248.497 299.248 262.5C299.15 267.285 300.635 268.367 304.849 268.357C362.317 268.221 419.785 268.221 477.252 268.357C481.473 268.366 482.864 267.258 482.854 262.49C482.713 196.466 482.739 130.442 482.81 64.4171C482.814 60.7974 481.976 58.0795 479.485 55.4756C470.041 45.6021 460.892 35.4009 451.422 25.5566C449.904 23.9788 447.315 22.7873 445.218 22.7804C398.077 22.6256 350.935 22.701 303.794 22.5843C300.174 22.5753 299.244 23.8442 299.281 27.5792C299.444 44.0029 299.252 60.4308 299.418 76.8544C299.46 81.0058 298.307 82.7591 294.297 82.4694C290.275 82.1788 286.216 82.2886 282.181 82.4475C279.395 82.5572 277.995 81.5844 278 78.3776C278.041 53.4171 277.978 28.4563 278.157 3.49727C278.165 2.37056 280.081 1.07559 281.324 0.219663C281.961 -0.219869 283.074 0.136038 283.972 0.136024C340.092 0.135744 396.213 0.178301 452.334 0.0447025C456.274 0.0353246 459.012 1.32134 461.733 4.29779C474.641 18.4171 487.82 32.2501 500.668 46.43C502.428 48.3716 503.795 51.685 503.8 54.3671C503.967 131.664 503.916 208.961 504 286.258C504.004 289.863 502.974 291.143 499.642 290.988C494.863 290.764 490.068 290.931 484.831 290.932Z" fill="#45496F"/>
<path d="M1283.61 148.217C1283.65 157.355 1283.97 166.029 1283.61 174.676C1283.18 185.301 1284.43 195.516 1290.04 205.613C1281.64 207.148 1274.19 208.639 1266.69 209.724C1265.7 209.867 1263.68 208.12 1263.39 206.939C1261.77 200.361 1259.93 193.745 1259.31 187.036C1258.15 174.452 1257.88 161.787 1256.99 149.173C1256.76 145.907 1255.74 142.669 1254.87 139.479C1252.93 132.408 1249.17 127.071 1241.22 126.126C1232.72 125.116 1226.54 129.261 1222.51 136.036C1220.34 139.688 1219.24 144.47 1219.15 148.773C1218.79 166.424 1219.01 184.086 1218.99 201.744C1218.99 202.893 1218.87 204.041 1218.79 205.592C1210.63 205.592 1202.59 205.592 1193.81 205.592C1193.81 203.869 1193.81 202.108 1193.81 200.346C1193.81 184.854 1193.85 169.361 1193.78 153.869C1193.77 150.549 1193.56 147.204 1193.11 143.916C1191.7 133.627 1186.66 127.755 1178.24 126.312C1170.09 124.914 1161.08 129.587 1157.15 138.209C1155.36 142.153 1154.52 146.833 1154.43 151.201C1154.12 167.521 1154.31 183.849 1154.31 200.175C1154.31 201.981 1154.31 203.787 1154.31 205.795C1145.84 205.795 1137.88 205.795 1129.11 205.795C1129.11 173.04 1129.11 140.355 1129.11 107.009C1135.32 107.009 1141.92 106.901 1148.51 107.142C1149.36 107.173 1150.63 108.903 1150.88 110.028C1151.51 112.94 1151.69 115.953 1152.14 119.74C1160.72 110.078 1170.68 104.595 1183.5 104.769C1196.79 104.949 1206.1 111.405 1212.66 121.385C1218.69 116.924 1224.06 111.295 1230.62 108.394C1255.62 97.3533 1280.04 112.08 1282.94 139.275C1283.24 142.088 1283.37 144.919 1283.61 148.217Z" fill="#40446B"/>
<path d="M128.125 179.969C128.124 185.966 128.335 191.477 127.974 196.951C127.882 198.345 126.16 200.536 124.866 200.802C114.638 202.909 104.399 205.346 94.0357 206.338C72.0837 208.439 50.3312 207.632 30.7232 195.712C10.0649 183.153 0.548357 164.224 0.021624 140.334C-0.614576 111.479 12.8065 90.9896 37.7715 77.8798C54.5547 69.0664 72.8213 66.5983 91.5685 68.7099C99.6145 69.6161 107.56 71.487 115.511 73.1178C118.049 73.6383 120.455 74.7971 123.344 75.8124C121.524 81.9959 119.797 87.6756 118.196 93.3906C117.457 96.0307 116.064 96.223 113.707 95.3432C101.364 90.7352 88.526 89.0399 75.4552 90.0419C58.2919 91.3575 43.0612 97.0941 33.775 112.645C19.1097 137.203 26.7571 177.796 67.5187 184.682C77.5841 186.383 88.2867 184.479 98.6762 183.881C99.9577 183.807 102.126 181.586 102.166 180.306C102.465 170.838 102.328 161.355 102.328 151.073C94.7168 151.073 87.4386 150.787 80.1964 151.175C75.4503 151.429 73.9513 149.721 74.3402 145.197C74.6529 141.559 74.5007 137.869 74.377 134.209C74.2783 131.285 75.3296 130.001 78.4232 130.02C93.5822 130.115 108.743 130.153 123.901 130.001C127.759 129.962 128.18 131.897 128.163 134.99C128.077 149.816 128.125 164.642 128.125 179.969Z" fill="#A1A3B7"/>
<path d="M648.25 113.197C670.685 99.9843 701.778 102.386 718.875 118.91C734.362 133.877 737.5 152.49 731.459 172.289C725.38 192.211 710.907 203.537 690.382 207.036C677.271 209.271 664.536 208.431 652.397 202.443C615.688 184.336 617.797 132.126 648.25 113.197ZM664.884 128.242C663.463 129.382 661.924 130.404 660.641 131.682C650.517 141.764 648.436 163.316 656.435 175.82C662.28 184.958 670.521 189.755 681.57 188.84C692.385 187.945 699.798 182.132 703.968 172.307C708.7 161.157 708.469 149.873 703.189 139.012C696.138 124.507 679.499 119.748 664.884 128.242Z" fill="#494D72"/>
<path d="M252.807 136.532C262.091 165.313 250.865 193.209 224.936 203.417C199.579 213.399 171.811 208.439 156.101 186.758C138.153 161.989 146.056 113.679 189.324 106.05C205.368 103.221 220.912 104.476 234.827 113.913C242.987 119.448 249.123 126.821 252.807 136.532ZM177.781 174.715C178.618 175.956 179.392 177.245 180.301 178.431C192.365 194.188 216.175 192.066 225.062 174.336C230.775 162.938 230.82 151.214 225.548 139.693C221.3 130.41 214.075 124.689 203.578 124.057C192.66 123.399 183.903 127.633 178.51 137.178C171.76 149.124 172.143 161.6 177.781 174.715Z" fill="#8F91A9"/>
<path d="M799.949 183.96C788.584 160.75 794.132 131.49 812.243 115.893C828.345 102.027 863.467 98.6416 880.571 120.019C890.212 132.068 892.36 146.079 891.116 160.982C890.808 164.674 888.301 163.993 886.06 163.995C865.395 164.009 844.729 164.003 824.063 164.003C822.453 164.003 820.843 164.003 818.739 164.003C821.144 174.394 826.885 181.789 836.307 184.623C845.035 187.248 854.407 187.735 864.418 189.309C865.076 193.422 866.067 198.955 866.733 204.527C866.827 205.311 865.498 206.757 864.542 207.1C843.339 214.706 811.726 203.471 799.949 183.96ZM834.398 124.639C825.41 128.302 820.747 135.239 819.089 144.622C835.101 144.622 850.912 144.622 866.75 144.622C865.426 128.589 852.719 118.803 834.398 124.639Z" fill="#3F436B"/>
<path d="M1099.91 142.236C1100.28 159.358 1100.52 176.01 1101.03 192.654C1101.16 196.894 1102.16 201.107 1102.82 205.818C1095.88 206.545 1089.31 207.37 1082.71 207.786C1081.61 207.855 1079.82 206.369 1079.37 205.207C1078.17 202.13 1077.54 198.836 1076.47 194.811C1073.85 196.757 1071.45 198.346 1069.27 200.201C1056.85 210.783 1038.13 209.469 1026.39 203.247C1016.84 198.183 1012.16 189.506 1012.02 178.647C1011.87 166.067 1017.33 156.503 1028.23 150.235C1039.01 144.034 1050.91 141.831 1063.15 141.105C1066.75 140.891 1070.37 141.072 1073.96 141.072C1074.85 135.386 1072.98 130.924 1069.28 128.456C1065.6 126.001 1060.84 124.735 1056.39 123.982C1052.04 123.248 1047.48 123.822 1042.3 123.822C1041.41 118.452 1040.45 112.659 1039.38 106.186C1056.56 104.052 1072.91 102.76 1087.1 113.997C1095.91 120.974 1098.95 130.973 1099.91 142.236ZM1060.98 159.181C1054.38 160.216 1047.89 161.474 1042.63 166.118C1038.36 169.887 1036.96 174.842 1038.75 180.537C1040.33 185.561 1044.15 188.49 1049.86 189.009C1065.31 190.416 1079.44 179.319 1074.41 159.111C1070.19 159.111 1066.04 159.111 1060.98 159.181Z" fill="#40446C"/>
<path d="M382.862 206.883C378.129 207.134 372.759 209.01 369.866 207.111C367.027 205.248 366.707 199.547 365.055 194.892C362.685 196.733 360.301 198.421 358.101 200.323C345.502 211.209 325.495 209.195 314.789 202.997C296.886 192.632 296.123 165.529 313.117 152.963C324.406 144.616 337.619 142.232 351.166 141.129C354.947 140.821 358.773 141.082 362.344 141.082C365.074 133.512 357.68 124.732 347.622 124.034C343.328 123.737 338.982 124.259 334.666 124.165C333.463 124.139 331.382 123.433 331.229 122.714C330.101 117.427 329.36 112.057 328.409 106.167C342.714 104.323 356.057 103.325 368.806 109.369C382.522 115.871 387.868 127.769 388.827 142.069C389.293 149.034 388.907 156.053 389.122 163.04C389.555 177.109 390.136 191.174 390.678 205.838C388.818 206.095 386.064 206.475 382.862 206.883ZM354.719 185.393C364.723 178.968 365.13 169.395 363.51 158.48C357.888 158.919 352.294 158.653 347.093 159.956C341.616 161.328 336.098 163.551 331.364 166.595C326.552 169.69 326.092 175.123 327.713 180.493C329.288 185.707 333.11 188.939 338.285 188.773C343.586 188.604 348.838 186.87 354.719 185.393Z" fill="#7E809C"/>
<path d="M922.699 206.004C914.662 206.004 907.091 206.004 897.932 206.004C911.271 188.366 923.655 171.992 936.244 155.348C924.321 139.662 912.417 124.001 899.565 107.093C910.196 107.093 919.243 106.967 928.278 107.245C929.465 107.282 930.768 109.255 931.714 110.552C938.565 119.956 945.338 129.416 952.295 139.079C958.975 129.485 965.565 120.192 971.943 110.755C973.801 108.005 975.81 106.773 979.26 106.906C986.827 107.199 994.413 106.997 1001.99 106.997C1002.27 107.439 1002.55 107.881 1002.83 108.324C991.017 123.606 979.208 138.888 967.317 154.274C979.588 171.284 991.671 188.033 1004.63 205.993C994.083 205.993 985.166 206.112 976.261 205.855C975.03 205.819 973.584 204.111 972.693 202.854C966.243 193.763 959.915 184.586 953.535 175.445C952.695 174.24 951.782 173.086 950.712 171.653C943.677 182.109 936.742 192.214 930.059 202.483C928.297 205.19 926.362 206.581 922.699 206.004Z" fill="#40446B"/>
<path d="M550.001 112.978C570.321 102.166 590.74 102.917 612.142 110.035C610.418 116.808 608.852 122.96 607.537 128.124C598.151 127.087 589.487 125.197 580.869 125.391C567.271 125.697 556.569 134.328 553.108 145.999C546.327 168.868 561.452 188.392 585.421 187.169C592.794 186.793 600.091 184.914 608.085 183.616C609.158 188.775 610.465 194.56 611.444 200.4C611.568 201.143 610.143 202.664 609.157 202.997C589.995 209.472 570.496 211.771 551.881 202.312C516.766 184.47 515.761 134.525 550.001 112.978Z" fill="#5B5D7F"/>
<path d="M683.802 147.015C688.092 149.403 690.835 152.748 689.005 157.235C687.921 159.892 685.257 162.623 682.629 163.751C679.368 165.15 675.735 163.917 673.563 160.556C671.396 157.204 671.212 153.659 673.505 150.329C675.91 146.836 679.297 145.638 683.802 147.015Z" fill="#494D72"/>
<path d="M208.329 162.221C204.424 164.717 200.259 165.266 197.501 162.198C195.49 159.96 194.058 155.801 194.678 153.013C195.239 150.495 198.604 147.901 201.329 146.739C204.918 145.208 208.206 147.471 210.097 150.623C212.472 154.583 211.913 158.544 208.329 162.221Z" fill="#8F91A9"/>
<path d="M435.609 110.358C435.609 112.553 435.609 114.685 436.643 115.783C437.579 116.913 439.743 116.881 441.777 116.848C444.942 116.913 447.913 116.848 449.43 118.495C450.948 120.142 450.948 123.436 450.916 126.697L450.948 153.402H441.777L441.809 125.987L435.61 125.987L435.577 135.125L411.359 135.125L411.391 110.358C411.391 107.839 413.49 105.74 415.944 105.805L431.056 105.805C433.511 105.74 435.609 107.839 435.609 110.358ZM411.391 200.516L411.359 138.742L435.577 138.742L435.609 200.516L423.5 212.625L411.391 200.516Z" fill="#A1A3B7"/>
</svg>
